<?xml version="1.0" encoding="UTF-8" standalone="no"?>
<!DOCTYPE svg PUBLIC "-//W3C//DTD SVG 1.1//EN" "http://www.w3.org/Graphics/SVG/1.1/DTD/svg11.dtd">
<svg width="100%" height="100%" viewBox="0 0 335 447" version="1.1" xmlns="http://www.w3.org/2000/svg" xmlns:xlink="http://www.w3.org/1999/xlink" xml:space="preserve" style="fill-rule:evenodd;clip-rule:evenodd;">
    <g transform="matrix(1,0,0,1,-4220.32,-3240.69)">
        <g transform="matrix(4.16667,0,0,4.16667,0,0)">
            <clipPath id="_clip1">
                <path d="M1017,781.889L1017,880.889L1089,880.889L1089,808.889L1062,781.889L1017,781.889Z"/>
            </clipPath>
            <g clip-path="url(#_clip1)">
                <path d="M1017,880.889L1017,781.889L1089,781.889L1089,880.889L1017,880.889Z" style="fill:url(#_Linear2);fill-rule:nonzero;"/>
            </g>
        </g>
        <g transform="matrix(4.16667,0,0,4.16667,0,0)">
            <path d="M1062,781.889L1089,808.889L1089,880.889L1017,880.889L1017,781.889L1062,781.889Z" style="fill:none;stroke-width:2px;stroke:rgb(113,146,161);"/>
        </g>
        <g transform="matrix(4.16667,0,0,4.16667,0,0)">
            <clipPath id="_clip3">
                <path d="M1062,808.889L1089,808.889L1062,781.889L1062,808.889Z"/>
            </clipPath>
            <g clip-path="url(#_clip3)">
                <path d="M1048.5,795.389L1062,781.889L1089,808.889L1075.5,822.389L1048.5,795.389Z" style="fill:url(#_Linear4);fill-rule:nonzero;"/>
            </g>
        </g>
        <g transform="matrix(4.16667,0,0,4.16667,0,0)">
            <path d="M1062,781.889L1089,808.889L1062,808.889L1062,781.889Z" style="fill:none;stroke-width:2px;stroke-linejoin:bevel;stroke:rgb(113,146,161);"/>
        </g>
    </g>
    <defs>
        <linearGradient id="_Linear2" x1="0" y1="0" x2="1" y2="0" gradientUnits="userSpaceOnUse" gradientTransform="matrix(-4.3e-06,-99,99,-4.3e-06,1053,880.889)"><stop offset="0%" style="stop-color:rgb(200,212,219);stop-opacity:1"/><stop offset="100%" style="stop-color:white;stop-opacity:1"/></linearGradient>
        <linearGradient id="_Linear4" x1="0" y1="0" x2="1" y2="0" gradientUnits="userSpaceOnUse" gradientTransform="matrix(13.4999,-13.4999,13.4999,13.4999,1062,808.89)"><stop offset="0%" style="stop-color:white;stop-opacity:1"/><stop offset="81%" style="stop-color:rgb(197,209,216);stop-opacity:1"/><stop offset="100%" style="stop-color:rgb(146,166,177);stop-opacity:1"/></linearGradient>
    </defs>
</svg>
